 http://img198.imageshack.us/img198/751/mv5bmtg5otmxnzk.jpg

Country.......: USA
Genre.........: Action, Adventure, Drama, Sci-Fi
Date release..: 01.06.2011 [World]
Director......: Matthew Vaughn
Writers.......: Ashley Miller, Zack Stentz
Duration......: 126 min.
More..........: http://www.imdb.com/title/tt1270798
Trailer.......: http://www.imdb.com/video/imdb/vi168926489
Trailer.......:

Pilot :
In 1962, Charles Xavier starts up a school and later a team, for humans with superhuman abilities. Among them is Erik Lensherr, his best friend... and future archenemy. 

Cats :
James McAvoy   	 ...  	Charles Xavier
Laurence Belcher 	... 	Charles Xavier (12 Years)
Michael Fassbender 	... 	Erik Lehnsherr | Magneto
Bill Milner 	... 	Young Erik
Kevin Bacon 	... 	Sebastian Shaw
Rose Byrne 	... 	Moira MacTaggert
Jennifer Lawrence 	... 	Raven | Mystique
Beth Goddard 	... 	Mrs. Xavier
Morgan Lily 	... 	Young Raven (10 yrs)
Oliver Platt 	... 	The Man in Black
Alex González 	... 	Janos Quested | Riptide
Jason Flemyng 	... 	Azazel
Zoe Kravitz 	... 	Angel Salvadore
January Jones 	... 	Emma Frost
Nicholas Hoult 	... 	Hank McCoy | Beast 

Data Technical :
!!! SAMPLE !!!
Audio.....: English
Subtitles.: Polish .txt
Format                           : AVI
Format/Info                      : Audio Video Interleave
File size                        : 1.94 GiB
Duration                         : 2h 6mn
Overall bit rate                 : 2 194 Kbps
Writing application              : Nandub v1.0rc2
Writing library                  : Nandub build 1853/release
Video
ID                               : 0
Format                           : MPEG-4 Visual
Format profile                   : Advanced Simple@L5
Format settings, BVOP            : Yes
Format settings, QPel            : Yes
Format settings, GMC             : No warppoints
Format settings, Matrix          : Default (H.263)
Muxing mode                      : Packed bitstream
Codec ID                         : XVID
Codec ID/Hint                    : XviD
Duration                         : 2h 6mn
Bit rate                         : 1 800 Kbps
Width                            : 720 pixels
Height                           : 304 pixels
Display aspect ratio             : 2.35:1
Frame rate                       : 25.000 fps
Color space                      : YUV
Chroma subsampling               : 4:2:0
Bit depth                        : 8 bits
Scan type                        : Progressive
Bits/(Pixel*Frame)               : 0.329
Stream size                      : 1.59 GiB (82%)
Writing library                  : XviD 1.2.1 (UTC 2008-12-04)
Audio
ID                               : 1
Format                           : AC-3
Format/Info                      : Audio Coding 3
Mode extension                   : CM (complete main)
Codec ID                         : 2000
Duration                         : 2h 6mn
Bit rate mode                    : Constant
Bit rate                         : 384 Kbps
Channel(s)                       : 6 channels
Channel positions                : Front: L C R, Side: L R, LFE
Sampling rate                    : 48.0 KHz
Bit depth                        : 16 bits
Stream size                      : 347 MiB (18%)
Alignment                        : Split accross interleaves
Interleave, duration             : 40 ms (1.00 video frame)
Interleave, preload duration     : 500 ms

Screen : 
http://img819.imageshack.us/img819/1411/xmenfirstclass2011s1.jpg 
http://img263.imageshack.us/img263/2157/xmenfirstclass2011s2.jpg 
http://img717.imageshack.us/img717/7352/xmenfirstclass2011s3.jpg 
http://img13.imageshack.us/img13/4008/xmenfirstclass2011s4.jpg 
http://img855.imageshack.us/img855/4917/xmenfirstclass2011s5.jpg